<svg width="692.705029296875px" height="206.23999633789063px" xmlns="http://www.w3.org/2000/svg" viewBox="-96.35251464843748 -28.119998168945315 692.705029296875 206.23999633789063" style="background: rgb(255, 255, 255);" preserveAspectRatio="xMidYMid"><defs><filter id="editing-vr"><feFlood flood-color="#6d82b1" flood-opacity="0.7" result="c1"></feFlood><feFlood flood-color="#feeb54" flood-opacity="0.7" result="c3"></feFlood><feComposite operator="in" in="c1" in2="SourceAlpha" result="text-c1"></feComposite><feComposite operator="in" in="c3" in2="SourceAlpha" result="text-c3"></feComposite><feOffset in="text-c1" dx="-2" dy="2" result="text1"></feOffset><feOffset in="text-c3" dx="2" dy="-2" result="text3"></feOffset><feBlend in="SourceGraphic" in2="text1" mode="multiply" result="text4"></feBlend><feBlend in="text4" in2="text3" mode="multiply"></feBlend></filter></defs><g filter="url(#editing-vr)"><g transform="translate(2.475029468536377, 117.13000154495239)"><path d="M55.21 0L55.21-25.95L58.31-31.80L58.31 0L55.21 0ZM61.40 0L61.40-37.81L64.50-43.66L64.50 0L61.40 0ZM67.59 0L67.59-49.50L70.68-55.39L70.68 0L67.59 0ZM69.87-71.16L46.84-27.41L45.07-30.64L66.39-71.16L69.87-71.16ZM62.86-71.16L43.27-34.16L41.46-37.43L59.34-71.16L62.86-71.16ZM22.56 0L22.56-31.45L25.65-25.61L25.65 0L22.56 0ZM16.37 0L16.37-43.23L19.46-37.38L19.46 0L16.37 0ZM10.18 0L10.18-55L13.28-49.11L13.28 0L10.18 0ZM7.48-71.16L35.19-18.56L31.71-18.56L7.09-65.27L7.09 0L4.00 0L4.00-71.16L7.48-71.16ZM14.52-71.16L42.20-18.56L38.67-18.56L11-71.16L14.52-71.16ZM73.78 0L73.78-65.27L49.16-18.56L45.63-18.56L18.00-71.16L21.48-71.16L47.44-21.83L73.35-71.16L76.87-71.16L76.87 0L73.78 0ZM110.09-47.61L110.09-47.61L110.09-47.61Q105.10-42.63 105.10-35.58L105.10-35.58L105.10-35.58Q105.10-28.53 110.09-23.55L110.09-23.55L110.09-23.55Q115.07-18.56 122.12-18.56L122.12-18.56L122.12-18.56Q129.16-18.56 134.15-23.55L134.15-23.55L134.15-23.55Q139.13-28.53 139.13-35.58L139.13-35.58L139.13-35.58Q139.13-42.63 134.15-47.61L134.15-47.61L134.15-47.61Q129.16-52.59 122.12-52.59L122.12-52.59L122.12-52.59Q115.07-52.59 110.09-47.61ZM103.60-27.78L103.60-27.78L103.60-27.78Q102.01-31.50 102.01-35.58L102.01-35.58L102.01-35.58Q102.01-39.66 103.60-43.38L103.60-43.38L103.60-43.38Q105.19-47.09 107.89-49.80L107.89-49.80L107.89-49.80Q110.60-52.51 114.32-54.10L114.32-54.10L114.32-54.10Q118.04-55.69 122.12-55.69L122.12-55.69L122.12-55.69Q126.20-55.69 129.92-54.10L129.92-54.10L129.92-54.10Q133.63-52.51 136.34-49.80L136.34-49.80L136.34-49.80Q139.05-47.09 140.64-43.38L140.64-43.38L140.64-43.38Q142.23-39.66 142.23-35.58L142.23-35.58L142.23-35.58Q142.23-31.50 140.64-27.78L140.64-27.78L140.64-27.78Q139.05-24.06 136.34-21.36L136.34-21.36L136.34-21.36Q133.63-18.65 129.92-17.06L129.92-17.06L129.92-17.06Q126.20-15.47 122.12-15.47L122.12-15.47L122.12-15.47Q118.04-15.47 114.32-17.06L114.32-17.06L114.32-17.06Q110.60-18.65 107.89-21.36L107.89-21.36L107.89-21.36Q105.19-24.06 103.60-27.78ZM102.03-47.22L102.03-47.22L102.03-47.22Q98.91-41.89 98.91-35.58L98.91-35.58L98.91-35.58Q98.91-29.26 102.03-23.93L102.03-23.93L102.03-23.93Q105.14-18.61 110.47-15.49L110.47-15.49L110.47-15.49Q115.80-12.38 122.12-12.38L122.12-12.38L122.12-12.38Q128.43-12.38 133.76-15.49L133.76-15.49L133.76-15.49Q139.09-18.61 142.21-23.93L142.21-23.93L142.21-23.93Q145.32-29.26 145.32-35.58L145.32-35.58L145.32-35.58Q145.32-41.89 142.21-47.22L142.21-47.22L142.21-47.22Q139.09-52.55 133.76-55.67L133.76-55.67L133.76-55.67Q128.43-58.78 122.12-58.78L122.12-58.78L122.12-58.78Q115.80-58.78 110.47-55.67L110.47-55.67L110.47-55.67Q105.14-52.55 102.03-47.22ZM99.34-22.39L99.34-22.39L99.34-22.39Q95.82-28.45 95.82-35.58L95.82-35.58L95.82-35.58Q95.82-42.71 99.34-48.77L99.34-48.77L99.34-48.77Q102.87-54.83 108.93-58.35L108.93-58.35L108.93-58.35Q114.98-61.88 122.12-61.88L122.12-61.88L122.12-61.88Q129.25-61.88 135.31-58.35L135.31-58.35L135.31-58.35Q141.37-54.83 144.89-48.77L144.89-48.77L144.89-48.77Q148.41-42.71 148.41-35.58L148.41-35.58L148.41-35.58Q148.41-28.45 144.89-22.39L144.89-22.39L144.89-22.39Q141.37-16.33 135.31-12.80L135.31-12.80L135.31-12.80Q129.25-9.28 122.12-9.28L122.12-9.28L122.12-9.28Q114.98-9.28 108.93-12.80L108.93-12.80L108.93-12.80Q102.87-16.33 99.34-22.39ZM95.05-47.01L95.05-47.01L95.05-47.01Q92.73-41.55 92.73-35.58L92.73-35.58L92.73-35.58Q92.73-29.61 95.05-24.15L95.05-24.15L95.05-24.15Q97.37-18.69 101.30-14.76L101.30-14.76L101.30-14.76Q105.23-10.83 110.69-8.51L110.69-8.51L110.69-8.51Q116.14-6.19 122.12-6.19L122.12-6.19L122.12-6.19Q128.09-6.19 133.55-8.51L133.55-8.51L133.55-8.51Q139.00-10.83 142.94-14.76L142.94-14.76L142.94-14.76Q146.87-18.69 149.19-24.15L149.19-24.15L149.19-24.15Q151.51-29.61 151.51-35.58L151.51-35.58L151.51-35.58Q151.51-41.55 149.19-47.01L149.19-47.01L149.19-47.01Q146.87-52.46 142.94-56.40L142.94-56.40L142.94-56.40Q139.00-60.33 133.55-62.65L133.55-62.65L133.55-62.65Q128.09-64.97 122.12-64.97L122.12-64.97L122.12-64.97Q116.14-64.97 110.69-62.65L110.69-62.65L110.69-62.65Q105.23-60.33 101.30-56.40L101.30-56.40L101.30-56.40Q97.37-52.46 95.05-47.01ZM93.99-19.29L93.99-19.29L93.99-19.29Q89.63-26.77 89.63-35.58L89.63-35.58L89.63-35.58Q89.63-44.39 93.99-51.86L93.99-51.86L93.99-51.86Q98.36-59.34 105.83-63.70L105.83-63.70L105.83-63.70Q113.31-68.06 122.12-68.06L122.12-68.06L122.12-68.06Q130.93-68.06 138.40-63.70L138.40-63.70L138.40-63.70Q145.88-59.34 150.24-51.86L150.24-51.86L150.24-51.86Q154.60-44.39 154.60-35.58L154.60-35.58L154.60-35.58Q154.60-26.77 150.24-19.29L150.24-19.29L150.24-19.29Q145.88-11.82 138.40-7.46L138.40-7.46L138.40-7.46Q130.93-3.09 122.12-3.09L122.12-3.09L122.12-3.09Q113.31-3.09 105.83-7.46L105.83-7.46L105.83-7.46Q98.36-11.82 93.99-19.29ZM89.35-49.39L89.35-49.39L89.35-49.39Q86.54-42.80 86.54-35.58L86.54-35.58L86.54-35.58Q86.54-28.36 89.35-21.76L89.35-21.76L89.35-21.76Q92.17-15.17 96.94-10.40L96.94-10.40L96.94-10.40Q101.71-5.63 108.30-2.81L108.30-2.81L108.30-2.81Q114.90 0 122.12 0L122.12 0L122.12 0Q129.34 0 135.93-2.81L135.93-2.81L135.93-2.81Q142.53-5.63 147.30-10.40L147.30-10.40L147.30-10.40Q152.07-15.17 154.88-21.76L154.88-21.76L154.88-21.76Q157.70-28.36 157.70-35.58L157.70-35.58L157.70-35.58Q157.70-42.80 154.88-49.39L154.88-49.39L154.88-49.39Q152.07-55.99 147.30-60.76L147.30-60.76L147.30-60.76Q142.53-65.53 135.93-68.34L135.93-68.34L135.93-68.34Q129.34-71.16 122.12-71.16L122.12-71.16L122.12-71.16Q114.90-71.16 108.30-68.34L108.30-68.34L108.30-68.34Q101.71-65.53 96.94-60.76L96.94-60.76L96.94-60.76Q92.17-55.99 89.35-49.39ZM86.52-20.56L86.52-20.56L86.52-20.56Q83.45-27.71 83.45-35.58L83.45-35.58L83.45-35.58Q83.45-43.44 86.52-50.60L86.52-50.60L86.52-50.60Q89.59-57.75 94.77-62.93L94.77-62.93L94.77-62.93Q99.95-68.11 107.10-71.18L107.10-71.18L107.10-71.18Q114.25-74.25 122.12-74.25L122.12-74.25L122.12-74.25Q129.98-74.25 137.13-71.18L137.13-71.18L137.13-71.18Q144.29-68.11 149.47-62.93L149.47-62.93L149.47-62.93Q154.64-57.75 157.72-50.60L157.72-50.60L157.72-50.60Q160.79-43.44 160.79-35.58L160.79-35.58L160.79-35.58Q160.79-27.71 157.72-20.56L157.72-20.56L157.72-20.56Q154.64-13.41 149.47-8.23L149.47-8.23L149.47-8.23Q144.29-3.05 137.13 0.02L137.13 0.02L137.13 0.02Q129.98 3.09 122.12 3.09L122.12 3.09L122.12 3.09Q114.25 3.09 107.10 0.02L107.10 0.02L107.10 0.02Q99.95-3.05 94.77-8.23L94.77-8.23L94.77-8.23Q89.59-13.41 86.52-20.56ZM217.72-71.16L217.72-34.25L214.63-39.36L214.63-71.16L217.72-71.16ZM223.91-71.16L223.91-24.11L220.82-29.30L220.82-71.16L223.91-71.16ZM230.10-71.16L230.10-13.84L227.00-19.08L227.00-71.16L230.10-71.16ZM185.75 0L185.75-36.91L188.85-31.80L188.85 0L185.75 0ZM179.57 0L179.57-47.05L182.66-41.85L182.66 0L179.57 0ZM173.38 0L173.38-57.32L176.47-52.08L176.47 0L173.38 0ZM218.20 0L174.45-71.16L178.06-71.16L221.80 0L218.20 0ZM225.41 0L181.76-71.16L185.41-71.16L229.11 0L225.41 0ZM232.63 0L189.02-71.16L192.63-71.16L233.19-5.03L233.19-71.16L236.29-71.16L236.29 0L236.29 0Q236.29 0 232.63 0L232.63 0ZM210.93 0L170.29-66.13L170.29 0L167.19 0L167.19-71.16L167.19-71.16Q167.19-71.16 170.89-71.16L170.89-71.16L214.50 0L210.93 0ZM263.01 0L263.01-71.16L266.11-71.16L266.11 0L263.01 0ZM256.82 0L256.82-71.16L259.92-71.16L259.92 0L256.82 0ZM250.64 0L250.64-71.16L253.73-71.16L253.73 0L250.64 0ZM244.45 0L244.45-71.16L247.54-71.16L247.54 0L244.45 0ZM311.35-27.41L315.35-21.01L312.17-20.24L308.73-25.78L311.35-27.41ZM330.95 10.01L326.05 2.06L328.93 0.82L333.57 8.34L330.95 10.01ZM316.68-30.64L320.85-23.89L318.27-22.26L314.06-29.00L316.68-30.64ZM336.14 6.70L331.68-0.60L334.30-2.23L338.77 5.03L336.14 6.70ZM321.92-33.95L325.10-28.79L323.21-25.95L319.34-32.18L321.92-33.95ZM341.39 3.35L336.83-4.00L339.20-6.10L344.01 1.68L341.39 3.35ZM299.32-47.61L299.32-47.61L299.32-47.61Q294.34-42.63 294.34-35.58L294.34-35.58L294.34-35.58Q294.34-28.53 299.32-23.55L299.32-23.55L299.32-23.55Q304.30-18.56 311.35-18.56L311.35-18.56L311.35-18.56Q318.40-18.56 323.38-23.55L323.38-23.55L323.38-23.55Q328.37-28.53 328.37-35.58L328.37-35.58L328.37-35.58Q328.37-42.63 323.38-47.61L323.38-47.61L323.38-47.61Q318.40-52.59 311.35-52.59L311.35-52.59L311.35-52.59Q304.30-52.59 299.32-47.61ZM292.83-27.78L292.83-27.78L292.83-27.78Q291.24-31.50 291.24-35.58L291.24-35.58L291.24-35.58Q291.24-39.66 292.83-43.38L292.83-43.38L292.83-43.38Q294.42-47.09 297.13-49.80L297.13-49.80L297.13-49.80Q299.84-52.51 303.55-54.10L303.55-54.10L303.55-54.10Q307.27-55.69 311.35-55.69L311.35-55.69L311.35-55.69Q315.43-55.69 319.15-54.10L319.15-54.10L319.15-54.10Q322.87-52.51 325.57-49.80L325.57-49.80L325.57-49.80Q328.28-47.09 329.87-43.38L329.87-43.38L329.87-43.38Q331.46-39.66 331.46-35.58L331.46-35.58L331.46-35.58Q331.46-31.50 329.87-27.78L329.87-27.78L329.87-27.78Q328.28-24.06 325.57-21.36L325.57-21.36L325.57-21.36Q322.87-18.65 319.15-17.06L319.15-17.06L319.15-17.06Q315.43-15.47 311.35-15.47L311.35-15.47L311.35-15.47Q307.27-15.47 303.55-17.06L303.55-17.06L303.55-17.06Q299.84-18.65 297.13-21.36L297.13-21.36L297.13-21.36Q294.42-24.06 292.83-27.78ZM291.26-47.22L291.26-47.22L291.26-47.22Q288.15-41.89 288.15-35.58L288.15-35.58L288.15-35.58Q288.15-29.26 291.26-23.93L291.26-23.93L291.26-23.93Q294.38-18.61 299.71-15.49L299.71-15.49L299.71-15.49Q305.04-12.38 311.35-12.38L311.35-12.38L311.35-12.38Q317.67-12.38 323.00-15.49L323.00-15.49L323.00-15.49Q328.32-18.61 331.44-23.93L331.44-23.93L331.44-23.93Q334.55-29.26 334.55-35.58L334.55-35.58L334.55-35.58Q334.55-41.89 331.44-47.22L331.44-47.22L331.44-47.22Q328.32-52.55 323.00-55.67L323.00-55.67L323.00-55.67Q317.67-58.78 311.35-58.78L311.35-58.78L311.35-58.78Q305.04-58.78 299.71-55.67L299.71-55.67L299.71-55.67Q294.38-52.55 291.26-47.22ZM288.58-22.39L288.58-22.39L288.58-22.39Q285.05-28.45 285.05-35.58L285.05-35.58L285.05-35.58Q285.05-42.71 288.58-48.77L288.58-48.77L288.58-48.77Q292.10-54.83 298.16-58.35L298.16-58.35L298.16-58.35Q304.22-61.88 311.35-61.88L311.35-61.88L311.35-61.88Q318.48-61.88 324.54-58.35L324.54-58.35L324.54-58.35Q330.60-54.83 334.13-48.77L334.13-48.77L334.13-48.77Q337.65-42.71 337.65-35.58L337.65-35.58L337.65-35.58Q337.65-28.45 334.13-22.39L334.13-22.39L334.13-22.39Q330.60-16.33 324.54-12.80L324.54-12.80L324.54-12.80Q318.48-9.28 311.35-9.28L311.35-9.28L311.35-9.28Q304.22-9.28 298.16-12.80L298.16-12.80L298.16-12.80Q292.10-16.33 288.58-22.39ZM284.28-47.01L284.28-47.01L284.28-47.01Q281.96-41.55 281.96-35.58L281.96-35.58L281.96-35.58Q281.96-29.61 284.28-24.15L284.28-24.15L284.28-24.15Q286.60-18.69 290.53-14.76L290.53-14.76L290.53-14.76Q294.46-10.83 299.92-8.51L299.92-8.51L299.92-8.51Q305.38-6.19 311.35-6.19L311.35-6.19L311.35-6.19Q317.32-6.19 322.78-8.51L322.78-8.51L322.78-8.51Q328.24-10.83 332.17-14.76L332.17-14.76L332.17-14.76Q336.10-18.69 338.42-24.15L338.42-24.15L338.42-24.15Q340.74-29.61 340.74-35.58L340.74-35.58L340.74-35.58Q340.74-41.55 338.42-47.01L338.42-47.01L338.42-47.01Q336.10-52.46 332.17-56.40L332.17-56.40L332.17-56.40Q328.24-60.33 322.78-62.65L322.78-62.65L322.78-62.65Q317.32-64.97 311.35-64.97L311.35-64.97L311.35-64.97Q305.38-64.97 299.92-62.65L299.92-62.65L299.92-62.65Q294.46-60.33 290.53-56.40L290.53-56.40L290.53-56.40Q286.60-52.46 284.28-47.01ZM283.23-19.29L283.23-19.29L283.23-19.29Q278.87-26.77 278.87-35.58L278.87-35.58L278.87-35.58Q278.87-44.39 283.23-51.86L283.23-51.86L283.23-51.86Q287.59-59.34 295.07-63.70L295.07-63.70L295.07-63.70Q302.54-68.06 311.35-68.06L311.35-68.06L311.35-68.06Q320.16-68.06 327.64-63.70L327.64-63.70L327.64-63.70Q335.11-59.34 339.47-51.86L339.47-51.86L339.47-51.86Q343.84-44.39 343.84-35.58L343.84-35.58L343.84-35.58Q343.84-26.77 339.47-19.29L339.47-19.29L339.47-19.29Q335.11-11.82 327.64-7.46L327.64-7.46L327.64-7.46Q320.16-3.09 311.35-3.09L311.35-3.09L311.35-3.09Q302.54-3.09 295.07-7.46L295.07-7.46L295.07-7.46Q287.59-11.82 283.23-19.29ZM278.59-49.39L278.59-49.39L278.59-49.39Q275.77-42.80 275.77-35.58L275.77-35.58L275.77-35.58Q275.77-28.36 278.59-21.76L278.59-21.76L278.59-21.76Q281.40-15.17 286.17-10.40L286.17-10.40L286.17-10.40Q290.94-5.63 297.54-2.81L297.54-2.81L297.54-2.81Q304.13 0 311.35 0L311.35 0L311.35 0Q318.57 0 325.17-2.81L325.17-2.81L325.17-2.81Q331.76-5.63 336.53-10.40L336.53-10.40L336.53-10.40Q341.30-15.17 344.12-21.76L344.12-21.76L344.12-21.76Q346.93-28.36 346.93-35.58L346.93-35.58L346.93-35.58Q346.93-42.80 344.12-49.39L344.12-49.39L344.12-49.39Q341.30-55.99 336.53-60.76L336.53-60.76L336.53-60.76Q331.76-65.53 325.17-68.34L325.17-68.34L325.17-68.34Q318.57-71.16 311.35-71.16L311.35-71.16L311.35-71.16Q304.13-71.16 297.54-68.34L297.54-68.34L297.54-68.34Q290.94-65.53 286.17-60.76L286.17-60.76L286.17-60.76Q281.40-55.99 278.59-49.39ZM275.75-20.56L275.75-20.56L275.75-20.56Q272.68-27.71 272.68-35.58L272.68-35.58L272.68-35.58Q272.68-43.44 275.75-50.60L275.75-50.60L275.75-50.60Q278.82-57.75 284.00-62.93L284.00-62.93L284.00-62.93Q289.18-68.11 296.33-71.18L296.33-71.18L296.33-71.18Q303.49-74.25 311.35-74.25L311.35-74.25L311.35-74.25Q319.21-74.25 326.37-71.18L326.37-71.18L326.37-71.18Q333.52-68.11 338.70-62.93L338.70-62.93L338.70-62.93Q343.88-57.75 346.95-50.60L346.95-50.60L346.95-50.60Q350.02-43.44 350.02-35.58L350.02-35.58L350.02-35.58Q350.02-27.71 346.95-20.56L346.95-20.56L346.95-20.56Q343.88-13.41 338.70-8.23L338.70-8.23L338.70-8.23Q333.52-3.05 326.37 0.02L326.37 0.02L326.37 0.02Q319.21 3.09 311.35 3.09L311.35 3.09L311.35 3.09Q303.49 3.09 296.33 0.02L296.33 0.02L296.33 0.02Q289.18-3.05 284.00-8.23L284.00-8.23L284.00-8.23Q278.82-13.41 275.75-20.56ZM406.91-31.28L406.91-31.28L406.91-71.16L410.01-71.16L410.01-31.28L410.01-31.28Q410.01-24.75 404.85-20.11L404.85-20.11L404.85-20.11Q399.70-15.47 392.48-15.47L392.48-15.47L392.48-15.47Q385.26-15.47 380.10-20.11L380.10-20.11L380.10-20.11Q374.95-24.75 374.95-31.28L374.95-31.28L374.95-71.16L378.04-71.16L378.04-31.28L378.04-31.28Q378.04-26.04 382.27-22.30L382.27-22.30L382.27-22.30Q386.50-18.56 392.48-18.56L392.48-18.56L392.48-18.56Q398.45-18.56 402.68-22.30L402.68-22.30L402.68-22.30Q406.91-26.04 406.91-31.28ZM413.10-31.28L413.10-31.28L413.10-71.16L416.20-71.16L416.20-31.28L416.20-31.28Q416.20-26.81 414.30-22.75L414.30-22.75L414.30-22.75Q412.41-18.69 409.23-15.73L409.23-15.73L409.23-15.73Q406.05-12.76 401.67-11.02L401.67-11.02L401.67-11.02Q397.29-9.28 392.48-9.28L392.48-9.28L392.48-9.28Q387.66-9.28 383.28-11.02L383.28-11.02L383.28-11.02Q378.90-12.76 375.72-15.73L375.72-15.73L375.72-15.73Q372.54-18.69 370.65-22.75L370.65-22.75L370.65-22.75Q368.76-26.81 368.76-31.28L368.76-31.28L368.76-71.16L371.85-71.16L371.85-31.28L371.85-31.28Q371.85-26.17 374.62-21.81L374.62-21.81L374.62-21.81Q377.39-17.45 382.14-14.91L382.14-14.91L382.14-14.91Q386.89-12.38 392.48-12.38L392.48-12.38L392.48-12.38Q398.06-12.38 402.81-14.91L402.81-14.91L402.81-14.91Q407.56-17.45 410.33-21.81L410.33-21.81L410.33-21.81Q413.10-26.17 413.10-31.28ZM419.29-31.28L419.29-31.28L419.29-71.16L422.38-71.16L422.38-31.28L422.38-31.28Q422.38-25.57 420.00-20.35L420.00-20.35L420.00-20.35Q417.61-15.13 413.62-11.34L413.62-11.34L413.62-11.34Q409.62-7.56 404.08-5.33L404.08-5.33L404.08-5.33Q398.54-3.09 392.48-3.09L392.48-3.09L392.48-3.09Q386.42-3.09 380.88-5.33L380.88-5.33L380.88-5.33Q375.33-7.56 371.34-11.34L371.34-11.34L371.34-11.34Q367.34-15.13 364.96-20.35L364.96-20.35L364.96-20.35Q362.57-25.57 362.57-31.28L362.57-31.28L362.57-71.16L365.66-71.16L365.66-31.28L365.66-31.28Q365.66-24.49 369.27-18.71L369.27-18.71L369.27-18.71Q372.88-12.93 379.05-9.56L379.05-9.56L379.05-9.56Q385.21-6.19 392.48-6.19L392.48-6.19L392.48-6.19Q399.74-6.19 405.90-9.56L405.90-9.56L405.90-9.56Q412.07-12.93 415.68-18.71L415.68-18.71L415.68-18.71Q419.29-24.49 419.29-31.28ZM425.48-31.28L425.48-31.28L425.48-71.16L428.57-71.16L428.57-31.28L428.57-31.28Q428.57-22 423.71-14.07L423.71-14.07L423.71-14.07Q418.86-6.14 410.54-1.53L410.54-1.53L410.54-1.53Q402.23 3.09 392.48 3.09L392.48 3.09L392.48 3.09Q382.72 3.09 374.41-1.53L374.41-1.53L374.41-1.53Q366.09-6.14 361.24-14.07L361.24-14.07L361.24-14.07Q356.38-22 356.38-31.28L356.38-31.28L356.38-71.16L359.48-71.16L359.48-31.28L359.48-31.28Q359.48-24.96 362.10-19.16L362.10-19.16L362.10-19.16Q364.72-13.36 369.14-9.17L369.14-9.17L369.14-9.17Q373.57-4.98 379.69-2.49L379.69-2.49L379.69-2.49Q385.82 0 392.48 0L392.48 0L392.48 0Q399.14 0 405.26-2.49L405.26-2.49L405.26-2.49Q411.38-4.98 415.81-9.17L415.81-9.17L415.81-9.17Q420.23-13.36 422.86-19.16L422.86-19.16L422.86-19.16Q425.48-24.96 425.48-31.28ZM451.95-71.16L451.95 0L448.85 0L448.85-71.16L451.95-71.16ZM445.76-71.16L445.76 0L442.66 0L442.66-71.16L445.76-71.16ZM439.57-71.16L439.57 0L436.48 0L436.48-71.16L439.57-71.16ZM458.13-27.84L458.13-15.47L491.05-15.47L491.05-12.38L458.13-12.38L458.13-9.28L491.05-9.28L491.05-6.19L458.13-6.19L458.13-3.09L491.05-3.09L491.05 0L455.04 0L455.04-71.16L491.05-71.16L491.05-68.06L458.13-68.06L458.13-64.97L491.05-64.97L491.05-61.88L458.13-61.88L458.13-58.78L491.05-58.78L491.05-55.69L458.13-55.69L458.13-43.31L475.02-43.31L475.02-40.22L458.13-40.22L458.13-37.13L475.02-37.13L475.02-34.03L458.13-34.03L458.13-30.94L475.02-30.94L475.02-27.84L458.13-27.84Z" fill="#151e2f"></path></g></g><style>text {
  font-size: 64px;
  font-family: Arial Black;
  dominant-baseline: central;
  text-anchor: middle;
}</style></svg>